<svg xmlns="http://www.w3.org/2000/svg" width="660" height="490" viewBox="0 0 660 490" font-family="system-ui, -apple-system, 'PingFang SC', 'Noto Sans SC', sans-serif">
  <style>
    .c-red { color: #d63e3e; fill: #d63e3e; } .c-green { color: #2e8b57; fill: #2e8b57; }
    .c-blue { color: #3c6eb9; fill: #3c6eb9; }
    .c-ink { color: #1c1c1e; fill: #1c1c1e; } .c-gray { color: #6b7280; fill: #6b7280; }
    @media (prefers-color-scheme: dark) {
      .c-red { color: #f07070; fill: #f07070; } .c-green { color: #4caf7d; fill: #4caf7d; }
      .c-blue { color: #6b9df0; fill: #6b9df0; }
      .c-ink { color: #d8d8de; fill: #d8d8de; } .c-gray { color: #8e8e93; fill: #8e8e93; }
    }
    .nf { fill: none; }
    .semi { fill-opacity: 0.14; }
    .semi2 { fill-opacity: 0.07; }
  </style>
<text x="330.0" y="30.0" font-size="16" class="c-ink" text-anchor="middle" font-weight="600">稀释定律：三样东西一起变，一样东西不变</text><line x1="110.00" y1="400.00" x2="611.88" y2="400.00" stroke="currentColor" stroke-width="1.4" class="c-gray"/><polygon points="616.00,400.00 608.50,403.00 608.50,397.00" fill="currentColor" class="c-gray"/>
<line x1="110.00" y1="400.00" x2="110.00" y2="92.12" stroke="currentColor" stroke-width="1.4" class="c-gray"/><polygon points="110.00,88.00 113.00,95.50 107.00,95.50" fill="currentColor" class="c-gray"/>
<text x="104.0" y="96.0" font-size="12" class="c-gray" text-anchor="end">对数刻度</text>
<text x="612.0" y="96.0" font-size="12" class="c-gray" text-anchor="end">c / (mol·L⁻¹)</text>
<line x1="110.00" y1="400.00" x2="110.00" y2="405.00" stroke="currentColor" stroke-width="1.2" class="c-gray"/>
<text x="110.0" y="421.0" font-size="11" class="c-gray" text-anchor="middle">10⁻³</text>
<line x1="252.86" y1="400.00" x2="252.86" y2="405.00" stroke="currentColor" stroke-width="1.2" class="c-gray"/>
<text x="252.9" y="421.0" font-size="11" class="c-gray" text-anchor="middle">10⁻²</text>
<line x1="395.71" y1="400.00" x2="395.71" y2="405.00" stroke="currentColor" stroke-width="1.2" class="c-gray"/>
<text x="395.7" y="421.0" font-size="11" class="c-gray" text-anchor="middle">10⁻¹</text>
<line x1="538.57" y1="400.00" x2="538.57" y2="405.00" stroke="currentColor" stroke-width="1.2" class="c-gray"/>
<text x="538.6" y="421.0" font-size="11" class="c-gray" text-anchor="middle">1</text>
<line x1="110.00" y1="368.52" x2="105.00" y2="368.52" stroke="currentColor" stroke-width="1.2" class="c-gray"/>
<text x="100.0" y="372.5" font-size="11" class="c-gray" text-anchor="end">10⁻⁵</text>
<line x1="110.00" y1="316.07" x2="105.00" y2="316.07" stroke="currentColor" stroke-width="1.2" class="c-gray"/>
<text x="100.0" y="320.1" font-size="11" class="c-gray" text-anchor="end">10⁻⁴</text>
<line x1="110.00" y1="263.61" x2="105.00" y2="263.61" stroke="currentColor" stroke-width="1.2" class="c-gray"/>
<text x="100.0" y="267.6" font-size="11" class="c-gray" text-anchor="end">10⁻³</text>
<line x1="110.00" y1="211.15" x2="105.00" y2="211.15" stroke="currentColor" stroke-width="1.2" class="c-gray"/>
<text x="100.0" y="215.1" font-size="11" class="c-gray" text-anchor="end">10⁻²</text>
<line x1="110.00" y1="158.69" x2="105.00" y2="158.69" stroke="currentColor" stroke-width="1.2" class="c-gray"/>
<text x="100.0" y="162.7" font-size="11" class="c-gray" text-anchor="end">10⁻¹</text>
<line x1="110.00" y1="106.23" x2="105.00" y2="106.23" stroke="currentColor" stroke-width="1.2" class="c-gray"/>
<text x="100.0" y="110.2" font-size="11" class="c-gray" text-anchor="end">1</text>
<path d="M 110.00,151.99 L 113.57,152.65 L 117.14,153.30 L 120.71,153.96 L 124.29,154.62 L 127.86,155.27 L 131.43,155.93 L 135.00,156.58 L 138.57,157.24 L 142.14,157.89 L 145.71,158.55 L 149.29,159.21 L 152.86,159.86 L 156.43,160.52 L 160.00,161.17 L 163.57,161.83 L 167.14,162.48 L 170.71,163.14 L 174.29,163.80 L 177.86,164.45 L 181.43,165.11 L 185.00,165.76 L 188.57,166.42 L 192.14,167.07 L 195.71,167.73 L 199.29,168.39 L 202.86,169.04 L 206.43,169.70 L 210.00,170.35 L 213.57,171.01 L 217.14,171.66 L 220.71,172.32 L 224.29,172.98 L 227.86,173.63 L 231.43,174.29 L 235.00,174.94 L 238.57,175.60 L 242.14,176.26 L 245.71,176.91 L 249.29,177.57 L 252.86,178.22 L 256.43,178.88 L 260.00,179.53 L 263.57,180.19 L 267.14,180.85 L 270.71,181.50 L 274.29,182.16 L 277.86,182.81 L 281.43,183.47 L 285.00,184.12 L 288.57,184.78 L 292.14,185.44 L 295.71,186.09 L 299.29,186.75 L 302.86,187.40 L 306.43,188.06 L 310.00,188.71 L 313.57,189.37 L 317.14,190.03 L 320.71,190.68 L 324.29,191.34 L 327.86,191.99 L 331.43,192.65 L 335.00,193.30 L 338.57,193.96 L 342.14,194.62 L 345.71,195.27 L 349.29,195.93 L 352.86,196.58 L 356.43,197.24 L 360.00,197.89 L 363.57,198.55 L 367.14,199.21 L 370.71,199.86 L 374.29,200.52 L 377.86,201.17 L 381.43,201.83 L 385.00,202.48 L 388.57,203.14 L 392.14,203.80 L 395.71,204.45 L 399.29,205.11 L 402.86,205.76 L 406.43,206.42 L 410.00,207.07 L 413.57,207.73 L 417.14,208.39 L 420.71,209.04 L 424.29,209.70 L 427.86,210.35 L 431.43,211.01 L 435.00,211.66 L 438.57,212.32 L 442.14,212.98 L 445.71,213.63 L 449.29,214.29 L 452.86,214.94 L 456.43,215.60 L 460.00,216.26 L 463.57,216.91 L 467.14,217.57 L 470.71,218.22 L 474.29,218.88 L 477.86,219.53 L 481.43,220.19 L 485.00,220.85 L 488.57,221.50 L 492.14,222.16 L 495.71,222.81 L 499.29,223.47 L 502.86,224.12 L 506.43,224.78 L 510.00,225.44 L 513.57,226.09 L 517.14,226.75 L 520.71,227.40 L 524.29,228.06 L 527.86,228.71 L 531.43,229.37 L 535.00,230.03 L 538.57,230.68 L 542.14,231.34 L 545.71,231.99 L 549.29,232.65 L 552.86,233.30 L 556.43,233.96 L 560.00,234.62 L 563.57,235.27 L 567.14,235.93 L 570.71,236.58 L 574.29,237.24 L 577.86,237.89 L 581.43,238.55 L 585.00,239.21 L 588.57,239.86 L 592.14,240.52 L 595.71,241.17 L 599.29,241.83 L 602.86,242.48 L 606.43,243.14 L 610.00,243.80" stroke="currentColor" stroke-width="2.6" class="c-red nf"/>
<path d="M 110.00,309.37 L 113.57,308.71 L 117.14,308.06 L 120.71,307.40 L 124.29,306.75 L 127.86,306.09 L 131.43,305.44 L 135.00,304.78 L 138.57,304.12 L 142.14,303.47 L 145.71,302.81 L 149.29,302.16 L 152.86,301.50 L 156.43,300.85 L 160.00,300.19 L 163.57,299.53 L 167.14,298.88 L 170.71,298.22 L 174.29,297.57 L 177.86,296.91 L 181.43,296.26 L 185.00,295.60 L 188.57,294.94 L 192.14,294.29 L 195.71,293.63 L 199.29,292.98 L 202.86,292.32 L 206.43,291.66 L 210.00,291.01 L 213.57,290.35 L 217.14,289.70 L 220.71,289.04 L 224.29,288.39 L 227.86,287.73 L 231.43,287.07 L 235.00,286.42 L 238.57,285.76 L 242.14,285.11 L 245.71,284.45 L 249.29,283.80 L 252.86,283.14 L 256.43,282.48 L 260.00,281.83 L 263.57,281.17 L 267.14,280.52 L 270.71,279.86 L 274.29,279.21 L 277.86,278.55 L 281.43,277.89 L 285.00,277.24 L 288.57,276.58 L 292.14,275.93 L 295.71,275.27 L 299.29,274.62 L 302.86,273.96 L 306.43,273.30 L 310.00,272.65 L 313.57,271.99 L 317.14,271.34 L 320.71,270.68 L 324.29,270.03 L 327.86,269.37 L 331.43,268.71 L 335.00,268.06 L 338.57,267.40 L 342.14,266.75 L 345.71,266.09 L 349.29,265.44 L 352.86,264.78 L 356.43,264.12 L 360.00,263.47 L 363.57,262.81 L 367.14,262.16 L 370.71,261.50 L 374.29,260.85 L 377.86,260.19 L 381.43,259.53 L 385.00,258.88 L 388.57,258.22 L 392.14,257.57 L 395.71,256.91 L 399.29,256.26 L 402.86,255.60 L 406.43,254.94 L 410.00,254.29 L 413.57,253.63 L 417.14,252.98 L 420.71,252.32 L 424.29,251.66 L 427.86,251.01 L 431.43,250.35 L 435.00,249.70 L 438.57,249.04 L 442.14,248.39 L 445.71,247.73 L 449.29,247.07 L 452.86,246.42 L 456.43,245.76 L 460.00,245.11 L 463.57,244.45 L 467.14,243.80 L 470.71,243.14 L 474.29,242.48 L 477.86,241.83 L 481.43,241.17 L 485.00,240.52 L 488.57,239.86 L 492.14,239.21 L 495.71,238.55 L 499.29,237.89 L 502.86,237.24 L 506.43,236.58 L 510.00,235.93 L 513.57,235.27 L 517.14,234.62 L 520.71,233.96 L 524.29,233.30 L 527.86,232.65 L 531.43,231.99 L 535.00,231.34 L 538.57,230.68 L 542.14,230.03 L 545.71,229.37 L 549.29,228.71 L 552.86,228.06 L 556.43,227.40 L 560.00,226.75 L 563.57,226.09 L 567.14,225.44 L 570.71,224.78 L 574.29,224.12 L 577.86,223.47 L 581.43,222.81 L 585.00,222.16 L 588.57,221.50 L 592.14,220.85 L 595.71,220.19 L 599.29,219.53 L 602.86,218.88 L 606.43,218.22 L 610.00,217.57" stroke="currentColor" stroke-width="2.6" class="c-blue nf"/>
<line x1="110.00" y1="355.13" x2="610.00" y2="355.13" stroke="currentColor" stroke-width="2.6" class="c-green" stroke-dasharray="8,5"/>
<line x1="110.00" y1="400.00" x2="110.00" y2="360.13" stroke="currentColor" stroke-width="1.0" class="c-gray" stroke-dasharray="3,4"/>
<circle cx="110.00" cy="151.99" r="4.00" fill="currentColor" class="c-red"/>
<circle cx="110.00" cy="309.37" r="4.00" fill="currentColor" class="c-blue"/>
<text x="110.0" y="442.0" font-size="12" class="c-gray" text-anchor="middle">c = 0.001</text>
<line x1="395.71" y1="400.00" x2="395.71" y2="360.13" stroke="currentColor" stroke-width="1.0" class="c-gray" stroke-dasharray="3,4"/>
<circle cx="395.71" cy="204.45" r="4.00" fill="currentColor" class="c-red"/>
<circle cx="395.71" cy="256.91" r="4.00" fill="currentColor" class="c-blue"/>
<text x="395.7" y="442.0" font-size="12" class="c-gray" text-anchor="middle">c = 0.1</text>
<text x="172.0" y="128.0" font-size="12.5" class="c-red">α：越稀越大</text>
<g class="c-red" transform="translate(172.00,148.00) scale(0.01200)"><g stroke="currentColor" fill="currentColor" stroke-width="0" transform="scale(1,-1)"><g data-mml-node="math"><g data-mml-node="mtext"><text data-variant="normal" transform="scale(1,-1)" font-size="884px" font-family="serif">斜</text><text data-variant="normal" transform="translate(1000,0) scale(1,-1)" font-size="884px" font-family="serif">率</text></g><g data-mml-node="mtext" transform="translate(2000,0)"><path data-c="A0" d=""></path></g><g data-mml-node="mo" transform="translate(2472.2,0)"><path data-c="2212" d="M84 237T84 250T98 270H679Q694 262 694 250T679 230H98Q84 237 84 250Z"></path></g><g data-mml-node="mstyle" transform="translate(3472.4,0)"><g data-mml-node="mfrac"><g data-mml-node="mn" transform="translate(220,394) scale(0.707)"><path data-c="31" d="M213 578L200 573Q186 568 160 563T102 556H83V602H102Q149 604 189 617T245 641T273 663Q275 666 285 666Q294 666 302 660V361L303 61Q310 54 315 52T339 48T401 46H427V0H416Q395 3 257 3Q121 3 100 0H88V46H114Q136 46 152 46T177 47T193 50T201 52T207 57T213 61V578Z"></path></g><g data-mml-node="mn" transform="translate(220,-345) scale(0.707)"><path data-c="32" d="M109 429Q82 429 66 447T50 491Q50 562 103 614T235 666Q326 666 387 610T449 465Q449 422 429 383T381 315T301 241Q265 210 201 149L142 93L218 92Q375 92 385 97Q392 99 409 186V189H449V186Q448 183 436 95T421 3V0H50V19V31Q50 38 56 46T86 81Q115 113 136 137Q145 147 170 174T204 211T233 244T261 278T284 308T305 340T320 369T333 401T340 431T343 464Q343 527 309 573T212 619Q179 619 154 602T119 569T109 550Q109 549 114 549Q132 549 151 535T170 489Q170 464 154 447T109 429Z"></path></g><rect width="553.6" height="60" x="120" y="220"></rect></g></g></g></g></g>
<text x="172.0" y="268.0" font-size="12.5" class="c-blue">[H⁺]：越稀越小</text>
<g class="c-blue" transform="translate(172.00,288.00) scale(0.01200)"><g stroke="currentColor" fill="currentColor" stroke-width="0" transform="scale(1,-1)"><g data-mml-node="math"><g data-mml-node="mtext"><text data-variant="normal" transform="scale(1,-1)" font-size="884px" font-family="serif">斜</text><text data-variant="normal" transform="translate(1000,0) scale(1,-1)" font-size="884px" font-family="serif">率</text></g><g data-mml-node="mtext" transform="translate(2000,0)"><path data-c="A0" d=""></path></g><g data-mml-node="mo" transform="translate(2472.2,0)"><path data-c="2B" d="M56 237T56 250T70 270H369V420L370 570Q380 583 389 583Q402 583 409 568V270H707Q722 262 722 250T707 230H409V-68Q401 -82 391 -82H389H387Q375 -82 369 -68V230H70Q56 237 56 250Z"></path></g><g data-mml-node="mstyle" transform="translate(3472.4,0)"><g data-mml-node="mfrac"><g data-mml-node="mn" transform="translate(220,394) scale(0.707)"><path data-c="31" d="M213 578L200 573Q186 568 160 563T102 556H83V602H102Q149 604 189 617T245 641T273 663Q275 666 285 666Q294 666 302 660V361L303 61Q310 54 315 52T339 48T401 46H427V0H416Q395 3 257 3Q121 3 100 0H88V46H114Q136 46 152 46T177 47T193 50T201 52T207 57T213 61V578Z"></path></g><g data-mml-node="mn" transform="translate(220,-345) scale(0.707)"><path data-c="32" d="M109 429Q82 429 66 447T50 491Q50 562 103 614T235 666Q326 666 387 610T449 465Q449 422 429 383T381 315T301 241Q265 210 201 149L142 93L218 92Q375 92 385 97Q392 99 409 186V189H449V186Q448 183 436 95T421 3V0H50V19V31Q50 38 56 46T86 81Q115 113 136 137Q145 147 170 174T204 211T233 244T261 278T284 308T305 340T320 369T333 401T340 431T343 464Q343 527 309 573T212 619Q179 619 154 602T119 569T109 550Q109 549 114 549Q132 549 151 535T170 489Q170 464 154 447T109 429Z"></path></g><rect width="553.6" height="60" x="120" y="220"></rect></g></g></g></g></g>
<text x="420.0" y="330.0" font-size="12.5" class="c-green">Ka：不动</text>
<g class="c-green" transform="translate(420.00,350.00) scale(0.01200)"><g stroke="currentColor" fill="currentColor" stroke-width="0" transform="scale(1,-1)"><g data-mml-node="math"><g data-mml-node="mtext"><text data-variant="normal" transform="scale(1,-1)" font-size="884px" font-family="serif">斜</text><text data-variant="normal" transform="translate(1000,0) scale(1,-1)" font-size="884px" font-family="serif">率</text></g><g data-mml-node="mtext" transform="translate(2000,0)"><path data-c="A0" d=""></path></g><g data-mml-node="mn" transform="translate(2250,0)"><path data-c="30" d="M96 585Q152 666 249 666Q297 666 345 640T423 548Q460 465 460 320Q460 165 417 83Q397 41 362 16T301 -15T250 -22Q224 -22 198 -16T137 16T82 83Q39 165 39 320Q39 494 96 585ZM321 597Q291 629 250 629Q208 629 178 597Q153 571 145 525T137 333Q137 175 145 125T181 46Q209 16 250 16Q290 16 318 46Q347 76 354 130T362 333Q362 478 354 524T321 597Z"></path></g></g></g></g>
<text x="330.0" y="472.0" font-size="12.5" class="c-ink" text-anchor="middle">稀释 100 倍：α 涨 10 倍、[H⁺] 降 10 倍、Ka 一点不动</text>
</svg>
